#!OML:ASF G:\JayActor3\Patient Classification 1\Patient 1\Session 6\male.ASF
:FULLY-SPECIFIED
:DEGREES
1489
root 9.97293 16.2502 -3.5839 1.73592 -52.8169 -5.25892
lowerback 2.46109 -6.83256 -2.28127
upperback 2.81966 -9.21837 2.29835
thorax 2.279 -4.71215 3.60582
lowerneck 0.0492976 -9.38948 -4.49883
upperneck 24.0935 -12.542 -4.49106
head 7.41542 -7.00686 -1.5419
rclavicle 4.81245e-014 1.49089e-015
rhumerus -49.7234 8.72171 -85.2194
rradius 91.868
rwrist -64.8863
rhand -32.4233 -21.5361
rfingers 7.12502
rthumb -5.65744 -51.4406
lclavicle 4.81245e-014 1.49089e-015
lhumerus -27.1239 -26.0548 98.1218
lradius 75.3759
lwrist 51.2645
lhand -30.5527 -0.779207
lfingers 7.12502
lthumb -3.85123 29.1657
rfemur -22.4542 12.9061 23.6822
rtibia 41.3985
rfoot -14.8195 -2.71111
rtoes 9.20777
lfemur -6.08808 10.2571 -24.7716
ltibia 25.6317
lfoot -31.4973 32.3701
ltoes 11.4819
1490
root 9.98207 16.2541 -3.60462 1.84867 -52.8272 -5.25305
lowerback 2.63145 -6.84921 -2.46487
upperback 2.84159 -9.24461 2.26067
thorax 2.23246 -4.72881 3.68589
lowerneck 0.185265 -9.61952 -4.59967
upperneck 23.573 -12.9331 -4.00084
head 7.26233 -7.14645 -1.36754
rclavicle -2.0978e-014 -1.48095e-014
rhumerus -49.5247 8.58745 -85.2502
rradius 91.3567
rwrist -62.3905
rhand -31.5445 -20.8018
rfingers 7.12502
rthumb -4.8089 -50.7272
lclavicle -2.0978e-014 -1.48095e-014
lhumerus -27.0082 -26.1756 97.9381
lradius 75.1057
lwrist 49.9691
lhand -29.704 -0.0993618
lfingers 7.12502
lthumb -3.03156 29.8588
rfemur -22.7067 12.8504 23.6656
rtibia 41.4609
rfoot -14.7327 -2.78769
rtoes 8.86819
lfemur -6.37206 10.228 -24.7749
ltibia 25.7329
lfoot -31.289 32.5265
ltoes 11.2575
1491
root 9.99143 16.2583 -3.62662 1.9671 -52.8439 -5.24441
lowerback 2.80421 -6.86656 -2.65786
upperback 2.86722 -9.27274 2.22091
thorax 2.18994 -4.74665 3.76892
lowerneck 0.332548 -9.85203 -4.69417
upperneck 23.0208 -13.3279 -3.48906
head 7.10114 -7.2871 -1.18699
rclavicle -1.11065e-013 1.69961e-014
rhumerus -49.3116 8.44614 -85.2761
rradius 90.7961
rwrist -59.7273
rhand -30.5905 -20.0255
rfingers 7.12502
rthumb -3.88769 -49.9698
lclavicle -1.11065e-013 1.69961e-014
lhumerus -26.8907 -26.2974 97.7464
lradius 74.8085
lwrist 48.7744
lhand -28.8583 0.606266
lfingers 7.12502
lthumb -2.21489 30.5745
rfemur -22.9736 12.7779 23.6485
rtibia 41.529
rfoot -14.6726 -2.86332
rtoes 8.39059
lfemur -6.66541 10.1994 -24.7779
ltibia 25.8307
lfoot -31.0889 32.6764
ltoes 11.0532
1492
root 10.001 16.2628 -3.64989 2.08939 -52.8641 -5.23207
lowerback 2.9796 -6.88529 -2.86023
upperback 2.8965 -9.30372 2.17922
thorax 2.15146 -4.76619 3.85508
lowerneck 0.489521 -10.0852 -4.78049
upperneck 22.4396 -13.7229 -2.95892
head 6.9329 -7.42772 -1.00158
rclavicle -3.1585e-014 1.76421e-015
rhumerus -49.0863 8.29964 -85.2957
rradius 90.1955
rwrist -56.9233
rhand -29.5853 -19.2233
rfingers 7.12502
rthumb -2.917 -49.1831
lclavicle -3.1585e-014 1.76421e-015
lhumerus -26.772 -26.4216 97.547
lradius 74.4812
lwrist 47.6902
lhand -28.0218 1.31757
lfingers 7.12502
lthumb -1.40698 31.2927
rfemur -23.2521 12.689 23.6301
rtibia 41.6014
rfoot -14.6523 -2.9287
rtoes 7.76206
lfemur -6.96555 10.1545 -24.7831
ltibia 25.9229
lfoot -30.9133 32.8251
ltoes 10.8894
1493
root 10.0107 16.2675 -3.67447 2.21698 -52.886 -5.21795
lowerback 3.15686 -6.90573 -3.0703
upperback 2.92898 -9.33801 2.13647
thorax 2.1169 -4.78764 3.9443
lowerneck 0.650843 -10.3169 -4.8587
upperneck 21.8366 -14.1142 -2.41324
head 6.76073 -7.56707 -0.812602
rclavicle -1.48514e-014 1.26974e-014
rhumerus -48.8517 8.15121 -85.3083
rradius 89.5664
rwrist -54.0143
rhand -28.5598 -18.4184
rfingers 7.12502
rthumb -1.92662 -48.3894
lclavicle -1.48514e-014 1.26974e-014
lhumerus -26.654 -26.5496 97.341
lradius 74.122
lwrist 46.7143
lhand -27.2029 2.0177
lfingers 7.12502
lthumb -0.616054 31.9966
rfemur -23.5399 12.5865 23.6115
rtibia 41.6755
rfoot -14.6827 -2.9734
rtoes 6.98607
lfemur -7.27206 10.0803 -24.7905
ltibia 26.0089
lfoot -30.7754 32.9781
ltoes 10.7815
1494
root 10.0205 16.2726 -3.70034 2.35405 -52.9084 -5.20661
lowerback 3.33471 -6.92777 -3.28414
upperback 2.96392 -9.37542 2.09406
thorax 2.08585 -4.81084 4.03577
lowerneck 0.810602 -10.5452 -4.93078
upperneck 21.2199 -14.4983 -1.8534
head 6.58827 -7.70408 -0.620729
rclavicle 1.55642e-013 -9.64106e-015
rhumerus -48.6112 8.00501 -85.314
rradius 88.9202
rwrist -51.0395
rhand -27.547 -17.6325
rfingers 7.12502
rthumb -0.948386 -47.6101
lclavicle 1.55642e-013 -9.64106e-015
lhumerus -26.538 -26.6825 97.1302
lradius 73.7289
lwrist 45.8338
lhand -26.4119 2.69397
lfingers 7.12502
lthumb 0.1479 32.6737
rfemur -23.8353 12.4742 23.5948
rtibia 41.7482
rfoot -14.7709 -2.98918
rtoes 6.07269
lfemur -7.58553 9.96651 -24.7981
ltibia 26.0886
lfoot -30.6856 33.1412
ltoes 10.7412
1495
root 10.0303 16.278 -3.72741 2.5034 -52.9295 -5.20201
lowerback 3.512 -6.95147 -3.49751
upperback 3.00082 -9.41592 2.05317
thorax 2.05798 -4.8357 4.12834
lowerneck 0.963753 -10.7681 -5.00019
upperneck 20.5976 -14.8725 -1.28024
head 6.41912 -7.83799 -0.426232
rclavicle 6.07908e-014 -1.86858e-014
rhumerus -48.3686 7.86594 -85.3135
rradius 88.2667
rwrist -48.0403
rhand -26.5691 -16.8935
rfingers 7.12502
rthumb -0.00391017 -46.8733
lclavicle 6.07908e-014 -1.86858e-014
lhumerus -26.4249 -26.8209 96.9174
lradius 73.2993
lwrist 45.0258
lhand -25.6581 3.33676
lfingers 7.12502
lthumb 0.875992 33.3147
rfemur -24.1351 12.3557 23.5818
rtibia 41.8172
rfoot -14.9201 -2.97057
rtoes 5.05293
lfemur -7.90512 9.81069 -24.8032
ltibia 26.1615
lfoot -30.6446 33.3173
ltoes 10.7668
1496
root 10.0401 16.2837 -3.75552 2.66447 -52.9461 -5.20619
lowerback 3.68947 -6.97741 -3.70619
upperback 3.03943 -9.46017 2.01436
thorax 2.03211 -4.86246 4.22044
lowerneck 1.10846 -10.9848 -5.07043
upperneck 19.975 -15.2354 -0.694193
head 6.25538 -7.96854 -0.229019
rclavicle 5.17586e-014 -4.37326e-015
rhumerus -48.1275 7.73957 -85.3085
rradius 87.6125
rwrist -45.0595
rhand -25.636 -16.2334
rfingers 7.12502
rthumb 0.897293 -46.2113
lclavicle 5.17586e-014 -4.37326e-015
lhumerus -26.3144 -26.9653 96.7052
lradius 72.8292
lwrist 44.261
lhand -24.9485 3.94074
lfingers 7.12502
lthumb 1.56133 33.9148
rfemur -24.4341 12.2322 23.5724
rtibia 41.8809
rfoot -15.1295 -2.91739
rtoes 3.96999
lfemur -8.22765 9.61107 -24.8037
ltibia 26.2271
lfoot -30.648 33.5102
ltoes 10.8479
1497
root 10.05 16.2899 -3.78451 2.83767 -52.9541 -5.22308
lowerback 3.86915 -7.00634 -3.90432
upperback 3.07944 -9.50908 1.97837
thorax 2.00606 -4.89144 4.31003
lowerneck 1.24616 -11.1951 -5.14398
upperneck 19.355 -15.5867 -0.0964182
head 6.09772 -8.09594 -0.0290913
rclavicle -2.37175e-014 1.64991e-014
rhumerus -47.892 7.62999 -85.3011
rradius 86.9618
rwrist -42.1389
rhand -24.749 -15.674
rfingers 7.12502
rthumb 1.75395 -45.6466
lclavicle -2.37175e-014 1.64991e-014
lhumerus -26.2049 -27.1162 96.4962
lradius 72.3116
lwrist 43.5072
lhand -24.2848 4.49917
lfingers 7.12502
lthumb 2.20234 34.4676
rfemur -24.7263 12.1043 23.5678
rtibia 41.9391
rfoot -15.3956 -2.8364
rtoes 2.87469
lfemur -8.54936 9.36617 -24.7964
ltibia 26.285
lfoot -30.6884 33.7233
ltoes 10.9684
